# Blender 4.5.2 LTS
# www.blender.org
mtllib grass_blade.mtl
o GrassBlade
v -0.055425 0.000000 -0.000000
v 0.055425 0.000000 -0.000000
v -0.053173 0.196542 0.000000
v 0.053173 0.196542 0.000000
v -0.047608 0.393084 0.000000
v 0.047608 0.393084 0.000000
v -0.038843 0.550317 0.000000
v 0.038843 0.550317 0.000000
v -0.026130 0.727205 0.000000
v 0.026130 0.727205 0.000000
v 0.000000 1.000000 0.000000
vn -0.9952 -0.0000 0.0980
vn 0.9952 -0.0000 0.0980
vn 0.9952 0.0001 0.0980
vn -0.9952 0.0001 0.0980
vn 0.0980 -0.0000 0.9952
vt 0.000033 0.000033
vt 0.110875 0.000033
vt 0.108623 0.196562
vt 0.002285 0.196562
vt 0.103059 0.393091
vt 0.007850 0.393091
vt 0.094295 0.550314
vt 0.016613 0.550314
vt 0.081583 0.727190
vt 0.029326 0.727190
vt 0.055454 0.999967
s 1
f 1/1/1 2/2/2 4/3/3 3/4/1
f 3/4/1 4/3/3 6/5/3 5/6/4
f 5/6/4 6/5/3 8/7/3 7/8/4
f 7/8/4 8/7/3 10/9/2 9/10/1
f 9/10/1 10/9/2 11/11/5
